<svg xmlns="http://www.w3.org/2000/svg" width="960" height="600" viewBox="0 0 960 600" role="img" aria-labelledby="title desc">
<title id="title">Task 1: tree sensitivity to insertion order</title>
<desc id="desc">Five trials; median wall-clock time; sorted input exposes the BST worst case</desc>
<rect width="100%" height="100%" fill="#ffffff"/>
<text x="105" y="35" font-family="Arial" font-size="24" font-weight="700" fill="#222">Task 1: tree sensitivity to insertion order</text>
<text x="105" y="61" font-family="Arial" font-size="14" fill="#555">Five trials; median wall-clock time; sorted input exposes the BST worst case</text>
<line x1="105" y1="515.0" x2="925" y2="515.0" stroke="#dddddd" stroke-width="1"/>
<text x="93" y="520.0" text-anchor="end" font-family="Arial" font-size="13" fill="#444">1 us</text>
<line x1="105" y1="407.5" x2="925" y2="407.5" stroke="#dddddd" stroke-width="1"/>
<text x="93" y="412.5" text-anchor="end" font-family="Arial" font-size="13" fill="#444">10 us</text>
<line x1="105" y1="300.0" x2="925" y2="300.0" stroke="#dddddd" stroke-width="1"/>
<text x="93" y="305.0" text-anchor="end" font-family="Arial" font-size="13" fill="#444">100 us</text>
<line x1="105" y1="192.5" x2="925" y2="192.5" stroke="#dddddd" stroke-width="1"/>
<text x="93" y="197.5" text-anchor="end" font-family="Arial" font-size="13" fill="#444">1 ms</text>
<line x1="105" y1="85.0" x2="925" y2="85.0" stroke="#dddddd" stroke-width="1"/>
<text x="93" y="90.0" text-anchor="end" font-family="Arial" font-size="13" fill="#444">10 ms</text>
<line x1="105.0" y1="85" x2="105.0" y2="515" stroke="#eeeeee" stroke-width="1"/>
<text x="105.0" y="543" text-anchor="middle" font-family="Arial" font-size="14" fill="#333">100</text>
<line x1="515.0" y1="85" x2="515.0" y2="515" stroke="#eeeeee" stroke-width="1"/>
<text x="515.0" y="543" text-anchor="middle" font-family="Arial" font-size="14" fill="#333">1,000</text>
<line x1="925.0" y1="85" x2="925.0" y2="515" stroke="#eeeeee" stroke-width="1"/>
<text x="925.0" y="543" text-anchor="middle" font-family="Arial" font-size="14" fill="#333">10,000</text>
<polyline points="105.0,507.8 515.0,483.3 925.0,430.3" fill="none" stroke="#0072B2" stroke-width="3" stroke-linejoin="round"/>
<circle cx="105.0" cy="507.8" r="5" fill="#0072B2" stroke="#ffffff" stroke-width="2"/>
<circle cx="515.0" cy="483.3" r="5" fill="#0072B2" stroke="#ffffff" stroke-width="2"/>
<circle cx="925.0" cy="430.3" r="5" fill="#0072B2" stroke="#ffffff" stroke-width="2"/>
<polyline points="105.0,420.8 515.0,314.5 925.0,168.3" fill="none" stroke="#0072B2" stroke-width="3" stroke-linejoin="round" stroke-dasharray="9 6"/>
<circle cx="105.0" cy="420.8" r="5" fill="#0072B2" stroke="#ffffff" stroke-width="2"/>
<circle cx="515.0" cy="314.5" r="5" fill="#0072B2" stroke="#ffffff" stroke-width="2"/>
<circle cx="925.0" cy="168.3" r="5" fill="#0072B2" stroke="#ffffff" stroke-width="2"/>
<polyline points="105.0,457.0 515.0,436.8 925.0,389.4" fill="none" stroke="#D55E00" stroke-width="3" stroke-linejoin="round"/>
<circle cx="105.0" cy="457.0" r="5" fill="#D55E00" stroke="#ffffff" stroke-width="2"/>
<circle cx="515.0" cy="436.8" r="5" fill="#D55E00" stroke="#ffffff" stroke-width="2"/>
<circle cx="925.0" cy="389.4" r="5" fill="#D55E00" stroke="#ffffff" stroke-width="2"/>
<polyline points="105.0,451.7 515.0,434.2 925.0,386.6" fill="none" stroke="#D55E00" stroke-width="3" stroke-linejoin="round" stroke-dasharray="9 6"/>
<circle cx="105.0" cy="451.7" r="5" fill="#D55E00" stroke="#ffffff" stroke-width="2"/>
<circle cx="515.0" cy="434.2" r="5" fill="#D55E00" stroke="#ffffff" stroke-width="2"/>
<circle cx="925.0" cy="386.6" r="5" fill="#D55E00" stroke="#ffffff" stroke-width="2"/>
<line x1="105" y1="570" x2="133" y2="570" stroke="#0072B2" stroke-width="4"/>
<text x="141" y="575" font-family="Arial" font-size="13" fill="#222">BST - random</text>
<line x1="305" y1="570" x2="333" y2="570" stroke="#0072B2" stroke-width="4" stroke-dasharray="9 6"/>
<text x="341" y="575" font-family="Arial" font-size="13" fill="#222">BST - sorted</text>
<line x1="505" y1="570" x2="533" y2="570" stroke="#D55E00" stroke-width="4"/>
<text x="541" y="575" font-family="Arial" font-size="13" fill="#222">AVL - random</text>
<line x1="705" y1="570" x2="733" y2="570" stroke="#D55E00" stroke-width="4" stroke-dasharray="9 6"/>
<text x="741" y="575" font-family="Arial" font-size="13" fill="#222">AVL - sorted</text>
<text x="515.0" y="552" text-anchor="middle" font-family="Arial" font-size="15" fill="#222">Dataset size (cities)</text>
<text transform="translate(24 300.0) rotate(-90)" text-anchor="middle" font-family="Arial" font-size="15" fill="#222">Median time per operation (log scale)</text>
</svg>