<svg xmlns="http://www.w3.org/2000/svg" width="960" height="600" viewBox="0 0 960 600" role="img" aria-labelledby="title desc">
<title id="title">Task 1: successful city lookup</title>
<desc id="desc">Five trials; random input; median wall-clock time; lower is better</desc>
<rect width="100%" height="100%" fill="#ffffff"/>
<text x="105" y="35" font-family="Arial" font-size="24" font-weight="700" fill="#222">Task 1: successful city lookup</text>
<text x="105" y="61" font-family="Arial" font-size="14" fill="#555">Five trials; random input; median wall-clock time; lower is better</text>
<line x1="105" y1="515.0" x2="925" y2="515.0" stroke="#dddddd" stroke-width="1"/>
<text x="93" y="520.0" text-anchor="end" font-family="Arial" font-size="13" fill="#444">100 ns</text>
<line x1="105" y1="407.5" x2="925" y2="407.5" stroke="#dddddd" stroke-width="1"/>
<text x="93" y="412.5" text-anchor="end" font-family="Arial" font-size="13" fill="#444">1 us</text>
<line x1="105" y1="300.0" x2="925" y2="300.0" stroke="#dddddd" stroke-width="1"/>
<text x="93" y="305.0" text-anchor="end" font-family="Arial" font-size="13" fill="#444">10 us</text>
<line x1="105" y1="192.5" x2="925" y2="192.5" stroke="#dddddd" stroke-width="1"/>
<text x="93" y="197.5" text-anchor="end" font-family="Arial" font-size="13" fill="#444">100 us</text>
<line x1="105" y1="85.0" x2="925" y2="85.0" stroke="#dddddd" stroke-width="1"/>
<text x="93" y="90.0" text-anchor="end" font-family="Arial" font-size="13" fill="#444">1 ms</text>
<line x1="105.0" y1="85" x2="105.0" y2="515" stroke="#eeeeee" stroke-width="1"/>
<text x="105.0" y="543" text-anchor="middle" font-family="Arial" font-size="14" fill="#333">100</text>
<line x1="515.0" y1="85" x2="515.0" y2="515" stroke="#eeeeee" stroke-width="1"/>
<text x="515.0" y="543" text-anchor="middle" font-family="Arial" font-size="14" fill="#333">1,000</text>
<line x1="925.0" y1="85" x2="925.0" y2="515" stroke="#eeeeee" stroke-width="1"/>
<text x="925.0" y="543" text-anchor="middle" font-family="Arial" font-size="14" fill="#333">10,000</text>
<polyline points="105.0,420.6 515.0,396.0 925.0,347.0" fill="none" stroke="#0072B2" stroke-width="3" stroke-linejoin="round"/>
<circle cx="105.0" cy="420.6" r="5" fill="#0072B2" stroke="#ffffff" stroke-width="2"/>
<circle cx="515.0" cy="396.0" r="5" fill="#0072B2" stroke="#ffffff" stroke-width="2"/>
<circle cx="925.0" cy="347.0" r="5" fill="#0072B2" stroke="#ffffff" stroke-width="2"/>
<polyline points="105.0,429.4 515.0,409.1 925.0,362.9" fill="none" stroke="#D55E00" stroke-width="3" stroke-linejoin="round"/>
<circle cx="105.0" cy="429.4" r="5" fill="#D55E00" stroke="#ffffff" stroke-width="2"/>
<circle cx="515.0" cy="409.1" r="5" fill="#D55E00" stroke="#ffffff" stroke-width="2"/>
<circle cx="925.0" cy="362.9" r="5" fill="#D55E00" stroke="#ffffff" stroke-width="2"/>
<polyline points="105.0,362.1 515.0,264.0 925.0,119.0" fill="none" stroke="#009E73" stroke-width="3" stroke-linejoin="round"/>
<circle cx="105.0" cy="362.1" r="5" fill="#009E73" stroke="#ffffff" stroke-width="2"/>
<circle cx="515.0" cy="264.0" r="5" fill="#009E73" stroke="#ffffff" stroke-width="2"/>
<circle cx="925.0" cy="119.0" r="5" fill="#009E73" stroke="#ffffff" stroke-width="2"/>
<polyline points="105.0,391.3 515.0,388.4 925.0,347.0" fill="none" stroke="#CC79A7" stroke-width="3" stroke-linejoin="round"/>
<circle cx="105.0" cy="391.3" r="5" fill="#CC79A7" stroke="#ffffff" stroke-width="2"/>
<circle cx="515.0" cy="388.4" r="5" fill="#CC79A7" stroke="#ffffff" stroke-width="2"/>
<circle cx="925.0" cy="347.0" r="5" fill="#CC79A7" stroke="#ffffff" stroke-width="2"/>
<line x1="105" y1="570" x2="133" y2="570" stroke="#0072B2" stroke-width="4"/>
<text x="141" y="575" font-family="Arial" font-size="13" fill="#222">BST</text>
<line x1="305" y1="570" x2="333" y2="570" stroke="#D55E00" stroke-width="4"/>
<text x="341" y="575" font-family="Arial" font-size="13" fill="#222">AVL</text>
<line x1="505" y1="570" x2="533" y2="570" stroke="#009E73" stroke-width="4"/>
<text x="541" y="575" font-family="Arial" font-size="13" fill="#222">Min-Heap</text>
<line x1="705" y1="570" x2="733" y2="570" stroke="#CC79A7" stroke-width="4"/>
<text x="741" y="575" font-family="Arial" font-size="13" fill="#222">Hash Table</text>
<text x="515.0" y="552" text-anchor="middle" font-family="Arial" font-size="15" fill="#222">Dataset size (cities)</text>
<text transform="translate(24 300.0) rotate(-90)" text-anchor="middle" font-family="Arial" font-size="15" fill="#222">Median time per operation (log scale)</text>
</svg>