<svg xmlns="http://www.w3.org/2000/svg" width="920" height="570" viewBox="0 0 920 570" role="img" aria-labelledby="title desc">
<title id="title">Task 3: pruning the timetabling search</title>
<desc id="desc">Infeasible single-room instances; median explored placements; log scale</desc>
<rect width="100%" height="100%" fill="#ffffff"/>
<text x="100" y="38" font-family="Arial" font-size="24" font-weight="700" fill="#222">Task 3: pruning the timetabling search</text>
<text x="100" y="64" font-family="Arial" font-size="14" fill="#555">Infeasible single-room instances; median explored placements; log scale</text>
<line x1="100" y1="480.0" x2="885" y2="480.0" stroke="#dddddd"/>
<text x="88" y="485.0" text-anchor="end" font-family="Arial" font-size="13" fill="#444">10^0</text>
<line x1="100" y1="402.0" x2="885" y2="402.0" stroke="#dddddd"/>
<text x="88" y="407.0" text-anchor="end" font-family="Arial" font-size="13" fill="#444">10^1</text>
<line x1="100" y1="324.0" x2="885" y2="324.0" stroke="#dddddd"/>
<text x="88" y="329.0" text-anchor="end" font-family="Arial" font-size="13" fill="#444">10^2</text>
<line x1="100" y1="246.0" x2="885" y2="246.0" stroke="#dddddd"/>
<text x="88" y="251.0" text-anchor="end" font-family="Arial" font-size="13" fill="#444">10^3</text>
<line x1="100" y1="168.0" x2="885" y2="168.0" stroke="#dddddd"/>
<text x="88" y="173.0" text-anchor="end" font-family="Arial" font-size="13" fill="#444">10^4</text>
<line x1="100" y1="90.0" x2="885" y2="90.0" stroke="#dddddd"/>
<text x="88" y="95.0" text-anchor="end" font-family="Arial" font-size="13" fill="#444">10^5</text>
<text x="100.0" y="508" text-anchor="middle" font-family="Arial" font-size="14">5</text>
<text x="361.7" y="508" text-anchor="middle" font-family="Arial" font-size="14">6</text>
<text x="623.3" y="508" text-anchor="middle" font-family="Arial" font-size="14">7</text>
<text x="885.0" y="508" text-anchor="middle" font-family="Arial" font-size="14">8</text>
<polyline points="100.0,339.1 361.7,284.1 623.3,223.3 885.0,157.3" fill="none" stroke="#0072B2" stroke-width="3"/>
<circle cx="100.0" cy="339.1" r="5" fill="#0072B2" stroke="#fff" stroke-width="2"/>
<circle cx="361.7" cy="284.1" r="5" fill="#0072B2" stroke="#fff" stroke-width="2"/>
<circle cx="623.3" cy="223.3" r="5" fill="#0072B2" stroke="#fff" stroke-width="2"/>
<circle cx="885.0" cy="157.3" r="5" fill="#0072B2" stroke="#fff" stroke-width="2"/>
<line x1="100" y1="546" x2="128" y2="546" stroke="#0072B2" stroke-width="4"/>
<text x="136" y="551" font-family="Arial" font-size="13">Baseline</text>
<polyline points="100.0,433.0 361.7,425.5 623.3,419.3 885.0,414.1" fill="none" stroke="#D55E00" stroke-width="3"/>
<circle cx="100.0" cy="433.0" r="5" fill="#D55E00" stroke="#fff" stroke-width="2"/>
<circle cx="361.7" cy="425.5" r="5" fill="#D55E00" stroke="#fff" stroke-width="2"/>
<circle cx="623.3" cy="419.3" r="5" fill="#D55E00" stroke="#fff" stroke-width="2"/>
<circle cx="885.0" cy="414.1" r="5" fill="#D55E00" stroke="#fff" stroke-width="2"/>
<line x1="335" y1="546" x2="363" y2="546" stroke="#D55E00" stroke-width="4"/>
<text x="371" y="551" font-family="Arial" font-size="13">Pruned</text>
<text x="492.5" y="518" text-anchor="middle" font-family="Arial" font-size="15">Problem size</text>
<text transform="translate(23 285.0) rotate(-90)" text-anchor="middle" font-family="Arial" font-size="15">Explored placements (log scale)</text>
</svg>