<svg xmlns="http://www.w3.org/2000/svg" width="920" height="570" viewBox="0 0 920 570" role="img" aria-labelledby="title desc">
<title id="title">Task 4: packing solution quality</title>
<desc id="desc">Five-trial median bin count; exact results are shown only for small instances</desc>
<rect width="100%" height="100%" fill="#fff"/>
<text x="100" y="38" font-family="Arial" font-size="24" font-weight="700">Task 4: packing solution quality</text>
<text x="100" y="64" font-family="Arial" font-size="14" fill="#555">Five-trial median bin count; exact results are shown only for small instances</text>
<line x1="100" y1="480.0" x2="885" y2="480.0" stroke="#ddd"/>
<text x="88" y="485.0" text-anchor="end" font-family="Arial" font-size="13">0</text>
<line x1="100" y1="402.0" x2="885" y2="402.0" stroke="#ddd"/>
<text x="88" y="407.0" text-anchor="end" font-family="Arial" font-size="13">10</text>
<line x1="100" y1="324.0" x2="885" y2="324.0" stroke="#ddd"/>
<text x="88" y="329.0" text-anchor="end" font-family="Arial" font-size="13">21</text>
<line x1="100" y1="246.0" x2="885" y2="246.0" stroke="#ddd"/>
<text x="88" y="251.0" text-anchor="end" font-family="Arial" font-size="13">31</text>
<line x1="100" y1="168.0" x2="885" y2="168.0" stroke="#ddd"/>
<text x="88" y="173.0" text-anchor="end" font-family="Arial" font-size="13">41</text>
<line x1="100" y1="90.0" x2="885" y2="90.0" stroke="#ddd"/>
<text x="88" y="95.0" text-anchor="end" font-family="Arial" font-size="13">52</text>
<text x="100.0" y="508" text-anchor="middle" font-family="Arial" font-size="14">8</text>
<text x="117.1" y="508" text-anchor="middle" font-family="Arial" font-size="14">10</text>
<text x="134.1" y="508" text-anchor="middle" font-family="Arial" font-size="14">12</text>
<text x="245.1" y="508" text-anchor="middle" font-family="Arial" font-size="14">25</text>
<text x="458.4" y="508" text-anchor="middle" font-family="Arial" font-size="14">50</text>
<text x="885.0" y="508" text-anchor="middle" font-family="Arial" font-size="14">100</text>
<polyline points="100.0,449.8 117.1,434.7 134.1,427.2 245.1,381.9 458.4,291.4 885.0,125.5" fill="none" stroke="#0072B2" stroke-width="3"/>
<circle cx="100.0" cy="449.8" r="5" fill="#0072B2" stroke="#fff" stroke-width="2"/>
<circle cx="117.1" cy="434.7" r="5" fill="#0072B2" stroke="#fff" stroke-width="2"/>
<circle cx="134.1" cy="427.2" r="5" fill="#0072B2" stroke="#fff" stroke-width="2"/>
<circle cx="245.1" cy="381.9" r="5" fill="#0072B2" stroke="#fff" stroke-width="2"/>
<circle cx="458.4" cy="291.4" r="5" fill="#0072B2" stroke="#fff" stroke-width="2"/>
<circle cx="885.0" cy="125.5" r="5" fill="#0072B2" stroke="#fff" stroke-width="2"/>
<line x1="100" y1="546" x2="128" y2="546" stroke="#0072B2" stroke-width="4"/>
<text x="136" y="551" font-family="Arial" font-size="13">Greedy</text>
<polyline points="100.0,449.8 117.1,434.7 134.1,434.7 245.1,381.9 458.4,299.0 885.0,133.0" fill="none" stroke="#D55E00" stroke-width="3"/>
<circle cx="100.0" cy="449.8" r="5" fill="#D55E00" stroke="#fff" stroke-width="2"/>
<circle cx="117.1" cy="434.7" r="5" fill="#D55E00" stroke="#fff" stroke-width="2"/>
<circle cx="134.1" cy="434.7" r="5" fill="#D55E00" stroke="#fff" stroke-width="2"/>
<circle cx="245.1" cy="381.9" r="5" fill="#D55E00" stroke="#fff" stroke-width="2"/>
<circle cx="458.4" cy="299.0" r="5" fill="#D55E00" stroke="#fff" stroke-width="2"/>
<circle cx="885.0" cy="133.0" r="5" fill="#D55E00" stroke="#fff" stroke-width="2"/>
<line x1="320" y1="546" x2="348" y2="546" stroke="#D55E00" stroke-width="4"/>
<text x="356" y="551" font-family="Arial" font-size="13">Local search</text>
<polyline points="100.0,449.8 117.1,434.7 134.1,434.7" fill="none" stroke="#009E73" stroke-width="3"/>
<circle cx="100.0" cy="449.8" r="5" fill="#009E73" stroke="#fff" stroke-width="2"/>
<circle cx="117.1" cy="434.7" r="5" fill="#009E73" stroke="#fff" stroke-width="2"/>
<circle cx="134.1" cy="434.7" r="5" fill="#009E73" stroke="#fff" stroke-width="2"/>
<line x1="540" y1="546" x2="568" y2="546" stroke="#009E73" stroke-width="4"/>
<text x="576" y="551" font-family="Arial" font-size="13">Exact</text>
<polyline points="100.0,449.8 117.1,442.3 134.1,434.7 245.1,397.0 458.4,314.0 885.0,170.7" fill="none" stroke="#333" stroke-width="3"/>
<circle cx="100.0" cy="449.8" r="5" fill="#333" stroke="#fff" stroke-width="2"/>
<circle cx="117.1" cy="442.3" r="5" fill="#333" stroke="#fff" stroke-width="2"/>
<circle cx="134.1" cy="434.7" r="5" fill="#333" stroke="#fff" stroke-width="2"/>
<circle cx="245.1" cy="397.0" r="5" fill="#333" stroke="#fff" stroke-width="2"/>
<circle cx="458.4" cy="314.0" r="5" fill="#333" stroke="#fff" stroke-width="2"/>
<circle cx="885.0" cy="170.7" r="5" fill="#333" stroke="#fff" stroke-width="2"/>
<line x1="760" y1="546" x2="788" y2="546" stroke="#333" stroke-width="4"/>
<text x="796" y="551" font-family="Arial" font-size="13">Resource lower bound</text>
<text x="492.5" y="518" text-anchor="middle" font-family="Arial" font-size="15">Items</text>
<text transform="translate(23 285.0) rotate(-90)" text-anchor="middle" font-family="Arial" font-size="15">Bins used</text>
</svg>