<svg xmlns="http://www.w3.org/2000/svg" width="920" height="570" viewBox="0 0 920 570" role="img" aria-labelledby="title desc">
<title id="title">Task 5: speedup versus worker count</title>
<desc id="desc">Speedup = median sequential time / median concurrent time</desc>
<rect width="100%" height="100%" fill="#fff"/>
<text x="100" y="38" font-family="Arial" font-size="24" font-weight="700">Task 5: speedup versus worker count</text>
<text x="100" y="64" font-family="Arial" font-size="14" fill="#555">Speedup = median sequential time / median concurrent time</text>
<line x1="100" y1="480.0" x2="885" y2="480.0" stroke="#ddd"/>
<text x="88" y="485.0" text-anchor="end" font-family="Arial" font-size="13">0.0</text>
<line x1="100" y1="402.0" x2="885" y2="402.0" stroke="#ddd"/>
<text x="88" y="407.0" text-anchor="end" font-family="Arial" font-size="13">1.7</text>
<line x1="100" y1="324.0" x2="885" y2="324.0" stroke="#ddd"/>
<text x="88" y="329.0" text-anchor="end" font-family="Arial" font-size="13">3.4</text>
<line x1="100" y1="246.0" x2="885" y2="246.0" stroke="#ddd"/>
<text x="88" y="251.0" text-anchor="end" font-family="Arial" font-size="13">5.1</text>
<line x1="100" y1="168.0" x2="885" y2="168.0" stroke="#ddd"/>
<text x="88" y="173.0" text-anchor="end" font-family="Arial" font-size="13">6.8</text>
<line x1="100" y1="90.0" x2="885" y2="90.0" stroke="#ddd"/>
<text x="88" y="95.0" text-anchor="end" font-family="Arial" font-size="13">8.5</text>
<text x="100.0" y="508" text-anchor="middle" font-family="Arial" font-size="14">1</text>
<text x="361.7" y="508" text-anchor="middle" font-family="Arial" font-size="14">2</text>
<text x="623.3" y="508" text-anchor="middle" font-family="Arial" font-size="14">4</text>
<text x="885.0" y="508" text-anchor="middle" font-family="Arial" font-size="14">8</text>
<polyline points="100.0,437.3 361.7,418.4 623.3,400.7 885.0,400.1" fill="none" stroke="#0072B2" stroke-width="3"/>
<circle cx="100.0" cy="437.3" r="5" fill="#0072B2" stroke="#fff" stroke-width="2"/>
<circle cx="361.7" cy="418.4" r="5" fill="#0072B2" stroke="#fff" stroke-width="2"/>
<circle cx="623.3" cy="400.7" r="5" fill="#0072B2" stroke="#fff" stroke-width="2"/>
<circle cx="885.0" cy="400.1" r="5" fill="#0072B2" stroke="#fff" stroke-width="2"/>
<line x1="100" y1="546" x2="128" y2="546" stroke="#0072B2" stroke-width="4"/>
<text x="136" y="551" font-family="Arial" font-size="13">100 thousand</text>
<polyline points="100.0,429.3 361.7,398.5 623.3,358.7 885.0,340.2" fill="none" stroke="#D55E00" stroke-width="3"/>
<circle cx="100.0" cy="429.3" r="5" fill="#D55E00" stroke="#fff" stroke-width="2"/>
<circle cx="361.7" cy="398.5" r="5" fill="#D55E00" stroke="#fff" stroke-width="2"/>
<circle cx="623.3" cy="358.7" r="5" fill="#D55E00" stroke="#fff" stroke-width="2"/>
<circle cx="885.0" cy="340.2" r="5" fill="#D55E00" stroke="#fff" stroke-width="2"/>
<line x1="290" y1="546" x2="318" y2="546" stroke="#D55E00" stroke-width="4"/>
<text x="326" y="551" font-family="Arial" font-size="13">500 thousand</text>
<polyline points="100.0,433.0 361.7,398.6 623.3,352.5 885.0,320.0" fill="none" stroke="#009E73" stroke-width="3"/>
<circle cx="100.0" cy="433.0" r="5" fill="#009E73" stroke="#fff" stroke-width="2"/>
<circle cx="361.7" cy="398.6" r="5" fill="#009E73" stroke="#fff" stroke-width="2"/>
<circle cx="623.3" cy="352.5" r="5" fill="#009E73" stroke="#fff" stroke-width="2"/>
<circle cx="885.0" cy="320.0" r="5" fill="#009E73" stroke="#fff" stroke-width="2"/>
<line x1="480" y1="546" x2="508" y2="546" stroke="#009E73" stroke-width="4"/>
<text x="516" y="551" font-family="Arial" font-size="13">2 million</text>
<polyline points="100.0,434.1 361.7,388.2 623.3,296.5 885.0,112.9" fill="none" stroke="#777777" stroke-width="3" stroke-dasharray="8 6"/>
<circle cx="100.0" cy="434.1" r="5" fill="#777777" stroke="#fff" stroke-width="2"/>
<circle cx="361.7" cy="388.2" r="5" fill="#777777" stroke="#fff" stroke-width="2"/>
<circle cx="623.3" cy="296.5" r="5" fill="#777777" stroke="#fff" stroke-width="2"/>
<circle cx="885.0" cy="112.9" r="5" fill="#777777" stroke="#fff" stroke-width="2"/>
<line x1="670" y1="546" x2="698" y2="546" stroke="#777777" stroke-width="4" stroke-dasharray="8 6"/>
<text x="706" y="551" font-family="Arial" font-size="13">Ideal</text>
<text x="492.5" y="518" text-anchor="middle" font-family="Arial" font-size="15">Worker threads</text>
<text transform="translate(23 285.0) rotate(-90)" text-anchor="middle" font-family="Arial" font-size="15">Speedup</text>
</svg>