<svg xmlns="http://www.w3.org/2000/svg" width="920" height="570" viewBox="0 0 920 570" role="img" aria-labelledby="title desc">
<title id="title">Task 3: DP versus exhaustive scheduling</title>
<desc id="desc">Five-trial median; logarithmic runtime axis; both methods return the same optimum</desc>
<rect width="100%" height="100%" fill="#ffffff"/>
<text x="100" y="38" font-family="Arial" font-size="24" font-weight="700" fill="#222">Task 3: DP versus exhaustive scheduling</text>
<text x="100" y="64" font-family="Arial" font-size="14" fill="#555">Five-trial median; logarithmic runtime axis; both methods return the same optimum</text>
<line x1="100" y1="480.0" x2="885" y2="480.0" stroke="#dddddd"/>
<text x="88" y="485.0" text-anchor="end" font-family="Arial" font-size="13" fill="#444">10^-2</text>
<line x1="100" y1="402.0" x2="885" y2="402.0" stroke="#dddddd"/>
<text x="88" y="407.0" text-anchor="end" font-family="Arial" font-size="13" fill="#444">10^-1</text>
<line x1="100" y1="324.0" x2="885" y2="324.0" stroke="#dddddd"/>
<text x="88" y="329.0" text-anchor="end" font-family="Arial" font-size="13" fill="#444">10^0</text>
<line x1="100" y1="246.0" x2="885" y2="246.0" stroke="#dddddd"/>
<text x="88" y="251.0" text-anchor="end" font-family="Arial" font-size="13" fill="#444">10^1</text>
<line x1="100" y1="168.0" x2="885" y2="168.0" stroke="#dddddd"/>
<text x="88" y="173.0" text-anchor="end" font-family="Arial" font-size="13" fill="#444">10^2</text>
<line x1="100" y1="90.0" x2="885" y2="90.0" stroke="#dddddd"/>
<text x="88" y="95.0" text-anchor="end" font-family="Arial" font-size="13" fill="#444">10^3</text>
<text x="100.0" y="508" text-anchor="middle" font-family="Arial" font-size="14">5</text>
<text x="361.7" y="508" text-anchor="middle" font-family="Arial" font-size="14">10</text>
<text x="623.3" y="508" text-anchor="middle" font-family="Arial" font-size="14">14</text>
<text x="885.0" y="508" text-anchor="middle" font-family="Arial" font-size="14">16</text>
<polyline points="100.0,475.3 361.7,461.8 623.3,451.2 885.0,442.1" fill="none" stroke="#0072B2" stroke-width="3"/>
<circle cx="100.0" cy="475.3" r="5" fill="#0072B2" stroke="#fff" stroke-width="2"/>
<circle cx="361.7" cy="461.8" r="5" fill="#0072B2" stroke="#fff" stroke-width="2"/>
<circle cx="623.3" cy="451.2" r="5" fill="#0072B2" stroke="#fff" stroke-width="2"/>
<circle cx="885.0" cy="442.1" r="5" fill="#0072B2" stroke="#fff" stroke-width="2"/>
<line x1="100" y1="546" x2="128" y2="546" stroke="#0072B2" stroke-width="4"/>
<text x="136" y="551" font-family="Arial" font-size="13">Dynamic programming</text>
<polyline points="100.0,429.0 361.7,315.1 623.3,217.7 885.0,167.6" fill="none" stroke="#D55E00" stroke-width="3"/>
<circle cx="100.0" cy="429.0" r="5" fill="#D55E00" stroke="#fff" stroke-width="2"/>
<circle cx="361.7" cy="315.1" r="5" fill="#D55E00" stroke="#fff" stroke-width="2"/>
<circle cx="623.3" cy="217.7" r="5" fill="#D55E00" stroke="#fff" stroke-width="2"/>
<circle cx="885.0" cy="167.6" r="5" fill="#D55E00" stroke="#fff" stroke-width="2"/>
<line x1="335" y1="546" x2="363" y2="546" stroke="#D55E00" stroke-width="4"/>
<text x="371" y="551" font-family="Arial" font-size="13">Exhaustive search</text>
<text x="492.5" y="518" text-anchor="middle" font-family="Arial" font-size="15">Problem size</text>
<text transform="translate(23 285.0) rotate(-90)" text-anchor="middle" font-family="Arial" font-size="15">Median runtime in milliseconds (log scale)</text>
</svg>