<svg xmlns="http://www.w3.org/2000/svg" width="920" height="570" viewBox="0 0 920 570" role="img" aria-labelledby="title desc">
<title id="title">Task 4: quality versus computational cost</title>
<desc id="desc">Five-trial median wall-clock time; logarithmic axis</desc>
<rect width="100%" height="100%" fill="#fff"/>
<text x="100" y="38" font-family="Arial" font-size="24" font-weight="700">Task 4: quality versus computational cost</text>
<text x="100" y="64" font-family="Arial" font-size="14" fill="#555">Five-trial median wall-clock time; logarithmic axis</text>
<line x1="100" y1="480.0" x2="885" y2="480.0" stroke="#ddd"/>
<text x="88" y="485.0" text-anchor="end" font-family="Arial" font-size="13">10^-2</text>
<line x1="100" y1="415.0" x2="885" y2="415.0" stroke="#ddd"/>
<text x="88" y="420.0" text-anchor="end" font-family="Arial" font-size="13">10^-1</text>
<line x1="100" y1="350.0" x2="885" y2="350.0" stroke="#ddd"/>
<text x="88" y="355.0" text-anchor="end" font-family="Arial" font-size="13">10^0</text>
<line x1="100" y1="285.0" x2="885" y2="285.0" stroke="#ddd"/>
<text x="88" y="290.0" text-anchor="end" font-family="Arial" font-size="13">10^1</text>
<line x1="100" y1="220.0" x2="885" y2="220.0" stroke="#ddd"/>
<text x="88" y="225.0" text-anchor="end" font-family="Arial" font-size="13">10^2</text>
<line x1="100" y1="155.0" x2="885" y2="155.0" stroke="#ddd"/>
<text x="88" y="160.0" text-anchor="end" font-family="Arial" font-size="13">10^3</text>
<line x1="100" y1="90.0" x2="885" y2="90.0" stroke="#ddd"/>
<text x="88" y="95.0" text-anchor="end" font-family="Arial" font-size="13">10^4</text>
<text x="100.0" y="508" text-anchor="middle" font-family="Arial" font-size="14">8</text>
<text x="117.1" y="508" text-anchor="middle" font-family="Arial" font-size="14">10</text>
<text x="134.1" y="508" text-anchor="middle" font-family="Arial" font-size="14">12</text>
<text x="245.1" y="508" text-anchor="middle" font-family="Arial" font-size="14">25</text>
<text x="458.4" y="508" text-anchor="middle" font-family="Arial" font-size="14">50</text>
<text x="885.0" y="508" text-anchor="middle" font-family="Arial" font-size="14">100</text>
<polyline points="100.0,442.5 117.1,431.7 134.1,428.3 245.1,395.9 458.4,360.4 885.0,329.1" fill="none" stroke="#0072B2" stroke-width="3"/>
<circle cx="100.0" cy="442.5" r="5" fill="#0072B2" stroke="#fff" stroke-width="2"/>
<circle cx="117.1" cy="431.7" r="5" fill="#0072B2" stroke="#fff" stroke-width="2"/>
<circle cx="134.1" cy="428.3" r="5" fill="#0072B2" stroke="#fff" stroke-width="2"/>
<circle cx="245.1" cy="395.9" r="5" fill="#0072B2" stroke="#fff" stroke-width="2"/>
<circle cx="458.4" cy="360.4" r="5" fill="#0072B2" stroke="#fff" stroke-width="2"/>
<circle cx="885.0" cy="329.1" r="5" fill="#0072B2" stroke="#fff" stroke-width="2"/>
<line x1="100" y1="546" x2="128" y2="546" stroke="#0072B2" stroke-width="4"/>
<text x="136" y="551" font-family="Arial" font-size="13">Greedy</text>
<polyline points="100.0,381.6 117.1,351.8 134.1,333.6 245.1,286.2 458.4,199.0 885.0,143.7" fill="none" stroke="#D55E00" stroke-width="3"/>
<circle cx="100.0" cy="381.6" r="5" fill="#D55E00" stroke="#fff" stroke-width="2"/>
<circle cx="117.1" cy="351.8" r="5" fill="#D55E00" stroke="#fff" stroke-width="2"/>
<circle cx="134.1" cy="333.6" r="5" fill="#D55E00" stroke="#fff" stroke-width="2"/>
<circle cx="245.1" cy="286.2" r="5" fill="#D55E00" stroke="#fff" stroke-width="2"/>
<circle cx="458.4" cy="199.0" r="5" fill="#D55E00" stroke="#fff" stroke-width="2"/>
<circle cx="885.0" cy="143.7" r="5" fill="#D55E00" stroke="#fff" stroke-width="2"/>
<line x1="320" y1="546" x2="348" y2="546" stroke="#D55E00" stroke-width="4"/>
<text x="356" y="551" font-family="Arial" font-size="13">Local search</text>
<polyline points="100.0,435.2 117.1,413.5 134.1,382.9" fill="none" stroke="#009E73" stroke-width="3"/>
<circle cx="100.0" cy="435.2" r="5" fill="#009E73" stroke="#fff" stroke-width="2"/>
<circle cx="117.1" cy="413.5" r="5" fill="#009E73" stroke="#fff" stroke-width="2"/>
<circle cx="134.1" cy="382.9" r="5" fill="#009E73" stroke="#fff" stroke-width="2"/>
<line x1="540" y1="546" x2="568" y2="546" stroke="#009E73" stroke-width="4"/>
<text x="576" y="551" font-family="Arial" font-size="13">Exact</text>
<text x="492.5" y="518" text-anchor="middle" font-family="Arial" font-size="15">Items</text>
<text transform="translate(23 285.0) rotate(-90)" text-anchor="middle" font-family="Arial" font-size="15">Runtime in milliseconds (log scale)</text>
</svg>