<svg xmlns="http://www.w3.org/2000/svg" width="900" height="560" viewBox="0 0 900 560" role="img" aria-labelledby="title desc">
<title id="title">Task 2: dense graph runtime</title>
<desc id="desc">Five-trial median wall-clock runtime; lower is better.</desc>
<rect width="100%" height="100%" fill="#ffffff"/>
<text x="90" y="38" font-family="Arial" font-size="24" font-weight="700" fill="#222">Task 2: dense graph runtime</text>
<text x="90" y="64" font-family="Arial" font-size="14" fill="#555">Five trials; median wall-clock runtime; lower is better</text>
<line x1="90" y1="475.0" x2="865" y2="475.0" stroke="#dddddd"/>
<text x="78" y="480.0" text-anchor="end" font-family="Arial" font-size="13" fill="#444">0.0 ms</text>
<line x1="90" y1="398.0" x2="865" y2="398.0" stroke="#dddddd"/>
<text x="78" y="403.0" text-anchor="end" font-family="Arial" font-size="13" fill="#444">2.5 ms</text>
<line x1="90" y1="321.0" x2="865" y2="321.0" stroke="#dddddd"/>
<text x="78" y="326.0" text-anchor="end" font-family="Arial" font-size="13" fill="#444">5.0 ms</text>
<line x1="90" y1="244.0" x2="865" y2="244.0" stroke="#dddddd"/>
<text x="78" y="249.0" text-anchor="end" font-family="Arial" font-size="13" fill="#444">7.5 ms</text>
<line x1="90" y1="167.0" x2="865" y2="167.0" stroke="#dddddd"/>
<text x="78" y="172.0" text-anchor="end" font-family="Arial" font-size="13" fill="#444">9.9 ms</text>
<line x1="90" y1="90.0" x2="865" y2="90.0" stroke="#dddddd"/>
<text x="78" y="95.0" text-anchor="end" font-family="Arial" font-size="13" fill="#444">12.4 ms</text>
<text x="90.0" y="503" text-anchor="middle" font-family="Arial" font-size="14" fill="#333">50</text>
<text x="477.5" y="503" text-anchor="middle" font-family="Arial" font-size="14" fill="#333">100</text>
<text x="865.0" y="503" text-anchor="middle" font-family="Arial" font-size="14" fill="#333">200</text>
<polyline points="90.0,460.0 477.5,422.7 865.0,290.7" fill="none" stroke="#0072B2" stroke-width="3"/>
<circle cx="90.0" cy="460.0" r="5" fill="#0072B2" stroke="#fff" stroke-width="2"/>
<circle cx="477.5" cy="422.7" r="5" fill="#0072B2" stroke="#fff" stroke-width="2"/>
<circle cx="865.0" cy="290.7" r="5" fill="#0072B2" stroke="#fff" stroke-width="2"/>
<line x1="90" y1="536" x2="118" y2="536" stroke="#0072B2" stroke-width="4"/>
<text x="126" y="541" font-family="Arial" font-size="13" fill="#222">Dijkstra</text>
<polyline points="90.0,453.9 477.5,388.9 865.0,125.0" fill="none" stroke="#D55E00" stroke-width="3"/>
<circle cx="90.0" cy="453.9" r="5" fill="#D55E00" stroke="#fff" stroke-width="2"/>
<circle cx="477.5" cy="388.9" r="5" fill="#D55E00" stroke="#fff" stroke-width="2"/>
<circle cx="865.0" cy="125.0" r="5" fill="#D55E00" stroke="#fff" stroke-width="2"/>
<line x1="300" y1="536" x2="328" y2="536" stroke="#D55E00" stroke-width="4"/>
<text x="336" y="541" font-family="Arial" font-size="13" fill="#222">Bellman-Ford</text>
<polyline points="90.0,465.4 477.5,431.2 865.0,280.6" fill="none" stroke="#009E73" stroke-width="3"/>
<circle cx="90.0" cy="465.4" r="5" fill="#009E73" stroke="#fff" stroke-width="2"/>
<circle cx="477.5" cy="431.2" r="5" fill="#009E73" stroke="#fff" stroke-width="2"/>
<circle cx="865.0" cy="280.6" r="5" fill="#009E73" stroke="#fff" stroke-width="2"/>
<line x1="510" y1="536" x2="538" y2="536" stroke="#009E73" stroke-width="4"/>
<text x="546" y="541" font-family="Arial" font-size="13" fill="#222">Prim</text>
<text x="477.5" y="510" text-anchor="middle" font-family="Arial" font-size="15">Vertices</text>
<text transform="translate(22 282.5) rotate(-90)" text-anchor="middle" font-family="Arial" font-size="15">Median runtime (milliseconds)</text>
</svg>